<?xml version="1.0" encoding="UTF-8"?><svg xmlns="http://www.w3.org/2000/svg" xmlns:xlink="http://www.w3.org/1999/xlink" height="467pt" style="width:1093px;height:467px;" version="1.1" viewBox="0 0 1093 467" width="1093pt">
    <defs>
        <filter height="300%" id="f1" width="300%" x="-1" y="-1">
            <feGaussianBlur result="blurOut" stdDeviation="2.0"/>
            <feColorMatrix in="blurOut" result="blurOut2" type="matrix" values="0 0 0 0 0 0 0 0 0 0 0 0 0 0 0 0 0 0 .4 0"/>
            <feOffset dx="4.0" dy="4.0" in="blurOut2" result="blurOut3"/>
            <feBlend in="SourceGraphic" in2="blurOut3" mode="normal"/>
        </filter>
    </defs>
    <g>
        <text fill="#000000" font-family="sans-serif" font-size="14" font-weight="bold" lengthAdjust="spacingAndGlyphs" textLength="375" x="358.25" y="24.5332">XiaDxp - Diagram Sequence  : SaveConfig - 2015/09/15</text>
        <text fill="#000000" font-family="sans-serif" font-size="14" font-weight="bold" lengthAdjust="spacingAndGlyphs" textLength="5" x="520.75" y="42.1426">*</text>
        <text fill="#000000" font-family="sans-serif" font-size="14" font-weight="bold" lengthAdjust="spacingAndGlyphs" textLength="5" x="525.75" y="42.1426">*</text>
        <text fill="#000000" font-family="sans-serif" font-size="14" font-weight="bold" lengthAdjust="spacingAndGlyphs" textLength="5" x="530.75" y="42.1426">*</text>
        <text fill="#000000" font-family="sans-serif" font-size="14" font-weight="bold" lengthAdjust="spacingAndGlyphs" textLength="5" x="535.75" y="42.1426">*</text>
        <text fill="#000000" font-family="sans-serif" font-size="14" font-weight="bold" lengthAdjust="spacingAndGlyphs" textLength="5" x="540.75" y="42.1426">*</text>
        <text fill="#000000" font-family="sans-serif" font-size="14" font-weight="bold" lengthAdjust="spacingAndGlyphs" textLength="5" x="545.75" y="42.1426">*</text>
        <text fill="#000000" font-family="sans-serif" font-size="14" font-weight="bold" lengthAdjust="spacingAndGlyphs" textLength="5" x="550.75" y="42.1426">*</text>
        <text fill="#000000" font-family="sans-serif" font-size="14" font-weight="bold" lengthAdjust="spacingAndGlyphs" textLength="5" x="555.75" y="42.1426">*</text>
        <text fill="#000000" font-family="sans-serif" font-size="14" font-weight="bold" lengthAdjust="spacingAndGlyphs" textLength="5" x="560.75" y="42.1426">*</text>
        <text fill="#000000" font-family="sans-serif" font-size="14" font-weight="bold" lengthAdjust="spacingAndGlyphs" textLength="5" x="565.75" y="42.1426">*</text>
        <rect fill="#FFFFFF" filter="url(#f1)" height="192.4609" style="stroke: #A80036; stroke-width: 1.0;" width="10" x="148.5" y="168.8281"/>
        <rect fill="#FFFFFF" filter="url(#f1)" height="162.1094" style="stroke: #A80036; stroke-width: 1.0;" width="10" x="341.5" y="199.1797"/>
        <rect fill="#FFFFFF" filter="url(#f1)" height="117.7578" style="stroke: #A80036; stroke-width: 1.0;" width="10" x="534.5" y="229.5313"/>
        <rect fill="#FFFFFF" filter="url(#f1)" height="43.8789" style="stroke: #A80036; stroke-width: 1.0;" width="10" x="698.5" y="259.8828"/>
        <rect fill="#90EE90" height="413.6797" style="stroke: #A80036; stroke-width: 1.0;" width="69" x="119" y="53.2188"/>
        <text fill="#000000" font-family="sans-serif" font-size="13" font-weight="bold" lengthAdjust="spacingAndGlyphs" textLength="34" x="136.5" y="66.7139">VIEW</text>
        <rect fill="#FFA500" height="413.6797" style="stroke: #A80036; stroke-width: 1.0;" width="146" x="273.5" y="53.2188"/>
        <text fill="#000000" font-family="sans-serif" font-size="13" font-weight="bold" lengthAdjust="spacingAndGlyphs" textLength="88" x="304.5" y="66.7139">CONTROLLER</text>
        <rect fill="#ADD8E6" height="413.6797" style="stroke: #A80036; stroke-width: 1.0;" width="263.5" x="492.5" y="53.2188"/>
        <text fill="#000000" font-family="sans-serif" font-size="13" font-weight="bold" lengthAdjust="spacingAndGlyphs" textLength="46" x="601.25" y="66.7139">MODEL</text>
        <line style="stroke: #A80036; stroke-width: 1.0; stroke-dasharray: 5.0,5.0;" x1="25" x2="25" y1="136.8281" y2="379.2891"/>
        <line style="stroke: #A80036; stroke-width: 1.0; stroke-dasharray: 5.0,5.0;" x1="153" x2="153" y1="136.8281" y2="379.2891"/>
        <line style="stroke: #A80036; stroke-width: 1.0; stroke-dasharray: 5.0,5.0;" x1="346.5" x2="346.5" y1="136.8281" y2="379.2891"/>
        <line style="stroke: #A80036; stroke-width: 1.0; stroke-dasharray: 5.0,5.0;" x1="539.5" x2="539.5" y1="136.8281" y2="379.2891"/>
        <line style="stroke: #A80036; stroke-width: 1.0; stroke-dasharray: 5.0,5.0;" x1="703" x2="703" y1="136.8281" y2="379.2891"/>
        <text fill="#000000" font-family="sans-serif" font-size="14" lengthAdjust="spacingAndGlyphs" textLength="29" x="8" y="133.752">User</text>
        <ellipse cx="25.5" cy="62.2188" fill="#FEFECE" filter="url(#f1)" rx="8" ry="8" style="stroke: #A80036; stroke-width: 2.0;"/>
        <path d="M25.5,70.2188 L25.5,97.2188 M12.5,78.2188 L38.5,78.2188 M25.5,97.2188 L12.5,112.2188 M25.5,97.2188 L38.5,112.2188 " fill="#FEFECE" filter="url(#f1)" style="stroke: #A80036; stroke-width: 2.0;"/>
        <text fill="#000000" font-family="sans-serif" font-size="14" lengthAdjust="spacingAndGlyphs" textLength="29" x="8" y="392.8223">User</text>
        <ellipse cx="25.5" cy="405.8984" fill="#FEFECE" filter="url(#f1)" rx="8" ry="8" style="stroke: #A80036; stroke-width: 2.0;"/>
        <path d="M25.5,413.8984 L25.5,440.8984 M12.5,421.8984 L38.5,421.8984 M25.5,440.8984 L12.5,455.8984 M25.5,440.8984 L38.5,455.8984 " fill="#FEFECE" filter="url(#f1)" style="stroke: #A80036; stroke-width: 2.0;"/>
        <rect fill="#FEFECE" filter="url(#f1)" height="31.6094" style="stroke: #A80036; stroke-width: 1.5;" width="57" x="123" y="100.2188"/>
        <text fill="#000000" font-family="sans-serif" font-size="14" lengthAdjust="spacingAndGlyphs" textLength="43" x="130" y="121.752">Device</text>
        <rect fill="#FEFECE" filter="url(#f1)" height="31.6094" style="stroke: #A80036; stroke-width: 1.5;" width="57" x="123" y="378.2891"/>
        <text fill="#000000" font-family="sans-serif" font-size="14" lengthAdjust="spacingAndGlyphs" textLength="43" x="130" y="399.8223">Device</text>
        <rect fill="#FEFECE" filter="url(#f1)" height="31.6094" style="stroke: #A80036; stroke-width: 1.5;" width="76" x="306.5" y="100.2188"/>
        <text fill="#000000" font-family="sans-serif" font-size="14" lengthAdjust="spacingAndGlyphs" textLength="62" x="313.5" y="121.752">Controller</text>
        <rect fill="#FEFECE" filter="url(#f1)" height="31.6094" style="stroke: #A80036; stroke-width: 1.5;" width="76" x="306.5" y="378.2891"/>
        <text fill="#000000" font-family="sans-serif" font-size="14" lengthAdjust="spacingAndGlyphs" textLength="62" x="313.5" y="399.8223">Controller</text>
        <rect fill="#FEFECE" filter="url(#f1)" height="31.6094" style="stroke: #A80036; stroke-width: 1.5;" width="82" x="496.5" y="100.2188"/>
        <text fill="#000000" font-family="sans-serif" font-size="14" lengthAdjust="spacingAndGlyphs" textLength="68" x="503.5" y="121.752">Acquisition</text>
        <rect fill="#FEFECE" filter="url(#f1)" height="31.6094" style="stroke: #A80036; stroke-width: 1.5;" width="82" x="496.5" y="378.2891"/>
        <text fill="#000000" font-family="sans-serif" font-size="14" lengthAdjust="spacingAndGlyphs" textLength="68" x="503.5" y="399.8223">Acquisition</text>
        <rect fill="#FEFECE" filter="url(#f1)" height="31.6094" style="stroke: #A80036; stroke-width: 1.5;" width="93" x="655" y="100.2188"/>
        <text fill="#000000" font-family="sans-serif" font-size="14" lengthAdjust="spacingAndGlyphs" textLength="79" x="662" y="121.752">DriverHelper</text>
        <rect fill="#FEFECE" filter="url(#f1)" height="31.6094" style="stroke: #A80036; stroke-width: 1.5;" width="93" x="655" y="378.2891"/>
        <text fill="#000000" font-family="sans-serif" font-size="14" lengthAdjust="spacingAndGlyphs" textLength="79" x="662" y="399.8223">DriverHelper</text>
        <rect fill="#FFFFFF" filter="url(#f1)" height="192.4609" style="stroke: #A80036; stroke-width: 1.0;" width="10" x="148.5" y="168.8281"/>
        <rect fill="#FFFFFF" filter="url(#f1)" height="162.1094" style="stroke: #A80036; stroke-width: 1.0;" width="10" x="341.5" y="199.1797"/>
        <rect fill="#FFFFFF" filter="url(#f1)" height="117.7578" style="stroke: #A80036; stroke-width: 1.0;" width="10" x="534.5" y="229.5313"/>
        <rect fill="#FFFFFF" filter="url(#f1)" height="43.8789" style="stroke: #A80036; stroke-width: 1.0;" width="10" x="698.5" y="259.8828"/>
        <polygon fill="#A80036" points="136.5,164.8281,146.5,168.8281,136.5,172.8281,140.5,168.8281" style="stroke: #A80036; stroke-width: 1.0;"/>
        <line style="stroke: #A80036; stroke-width: 1.0;" x1="25.5" x2="142.5" y1="168.8281" y2="168.8281"/>
        <text fill="#000000" font-family="sans-serif" font-size="13" lengthAdjust="spacingAndGlyphs" textLength="99" x="32.5" y="164.3232">SaveConfig(alias)</text>
        <polygon fill="#A80036" points="329.5,195.1797,339.5,199.1797,329.5,203.1797,333.5,199.1797" style="stroke: #A80036; stroke-width: 1.0;"/>
        <line style="stroke: #A80036; stroke-width: 1.0;" x1="158.5" x2="335.5" y1="199.1797" y2="199.1797"/>
        <text fill="#000000" font-family="sans-serif" font-size="13" lengthAdjust="spacingAndGlyphs" textLength="130" x="165.5" y="194.6748">save_config(file_name)</text>
        <polygon fill="#A80036" points="522.5,225.5313,532.5,229.5313,522.5,233.5313,526.5,229.5313" style="stroke: #A80036; stroke-width: 1.0;"/>
        <line style="stroke: #A80036; stroke-width: 1.0;" x1="351.5" x2="528.5" y1="229.5313" y2="229.5313"/>
        <text fill="#000000" font-family="sans-serif" font-size="13" lengthAdjust="spacingAndGlyphs" textLength="130" x="358.5" y="225.0264">save_config(file_name)</text>
        <polygon fill="#A80036" points="686.5,255.8828,696.5,259.8828,686.5,263.8828,690.5,259.8828" style="stroke: #A80036; stroke-width: 1.0;"/>
        <line style="stroke: #A80036; stroke-width: 1.0;" x1="544.5" x2="692.5" y1="259.8828" y2="259.8828"/>
        <text fill="#000000" font-family="sans-serif" font-size="13" lengthAdjust="spacingAndGlyphs" textLength="130" x="551.5" y="255.3779">save_config(file_name)</text>
        <polygon fill="#A80036" points="555.5,299.7617,545.5,303.7617,555.5,307.7617,551.5,303.7617" style="stroke: #A80036; stroke-width: 1.0;"/>
        <line style="stroke: #A80036; stroke-width: 1.0; stroke-dasharray: 2.0,2.0;" x1="549.5" x2="702.5" y1="303.7617" y2="303.7617"/>
        <polygon fill="#FBFB77" filter="url(#f1)" points="713,273.2344,713,332.2344,1084,332.2344,1084,283.2344,1074,273.2344,713,273.2344" style="stroke: #A80036; stroke-width: 1.0;"/>
        <line style="stroke: #A80036; stroke-width: 1.0;" x1="1074" x2="1074" y1="273.2344" y2="283.2344"/>
        <line style="stroke: #A80036; stroke-width: 1.0;" x1="1084" x2="1074" y1="283.2344" y2="283.2344"/>
        <text fill="#000000" font-family="sans-serif" font-size="13" lengthAdjust="spacingAndGlyphs" textLength="323" x="719" y="291.7295">Driver library save all modified parameters in the the *.ini</text>
        <text fill="#000000" font-family="sans-serif" font-size="13" lengthAdjust="spacingAndGlyphs" textLength="350" x="719" y="308.0811">Parameters can be modified by user through tango attributes</text>
        <text fill="#000000" font-family="sans-serif" font-size="13" lengthAdjust="spacingAndGlyphs" textLength="182" x="719" y="324.4326">This operation takes &lt;1 second</text>
        <polygon fill="#A80036" points="362.5,343.2891,352.5,347.2891,362.5,351.2891,358.5,347.2891" style="stroke: #A80036; stroke-width: 1.0;"/>
        <line style="stroke: #A80036; stroke-width: 1.0; stroke-dasharray: 2.0,2.0;" x1="356.5" x2="538.5" y1="347.2891" y2="347.2891"/>
        <polygon fill="#A80036" points="164.5,357.2891,154.5,361.2891,164.5,365.2891,160.5,361.2891" style="stroke: #A80036; stroke-width: 1.0;"/>
        <line style="stroke: #A80036; stroke-width: 1.0; stroke-dasharray: 2.0,2.0;" x1="158.5" x2="345.5" y1="361.2891" y2="361.2891"/>
    </g>
</svg>
