<?xml version="1.0" encoding="UTF-8"?><svg xmlns="http://www.w3.org/2000/svg" xmlns:xlink="http://www.w3.org/1999/xlink" height="894pt" style="width:1472px;height:894px;" version="1.1" viewBox="0 0 1472 894" width="1472pt">
    <defs>
        <filter height="300%" id="f1" width="300%" x="-1" y="-1">
            <feGaussianBlur result="blurOut" stdDeviation="2.0"/>
            <feColorMatrix in="blurOut" result="blurOut2" type="matrix" values="0 0 0 0 0 0 0 0 0 0 0 0 0 0 0 0 0 0 .4 0"/>
            <feOffset dx="4.0" dy="4.0" in="blurOut2" result="blurOut3"/>
            <feBlend in="SourceGraphic" in2="blurOut3" mode="normal"/>
        </filter>
    </defs>
    <g>
        <text fill="#000000" font-family="sans-serif" font-size="14" font-weight="bold" lengthAdjust="spacingAndGlyphs" textLength="327" x="574.75" y="24.5332">XiaDxp - Diagram Sequence  : Start - 2015/09/15</text>
        <text fill="#000000" font-family="sans-serif" font-size="14" font-weight="bold" lengthAdjust="spacingAndGlyphs" textLength="5" x="713.25" y="42.1426">*</text>
        <text fill="#000000" font-family="sans-serif" font-size="14" font-weight="bold" lengthAdjust="spacingAndGlyphs" textLength="5" x="718.25" y="42.1426">*</text>
        <text fill="#000000" font-family="sans-serif" font-size="14" font-weight="bold" lengthAdjust="spacingAndGlyphs" textLength="5" x="723.25" y="42.1426">*</text>
        <text fill="#000000" font-family="sans-serif" font-size="14" font-weight="bold" lengthAdjust="spacingAndGlyphs" textLength="5" x="728.25" y="42.1426">*</text>
        <text fill="#000000" font-family="sans-serif" font-size="14" font-weight="bold" lengthAdjust="spacingAndGlyphs" textLength="5" x="733.25" y="42.1426">*</text>
        <text fill="#000000" font-family="sans-serif" font-size="14" font-weight="bold" lengthAdjust="spacingAndGlyphs" textLength="5" x="738.25" y="42.1426">*</text>
        <text fill="#000000" font-family="sans-serif" font-size="14" font-weight="bold" lengthAdjust="spacingAndGlyphs" textLength="5" x="743.25" y="42.1426">*</text>
        <text fill="#000000" font-family="sans-serif" font-size="14" font-weight="bold" lengthAdjust="spacingAndGlyphs" textLength="5" x="748.25" y="42.1426">*</text>
        <text fill="#000000" font-family="sans-serif" font-size="14" font-weight="bold" lengthAdjust="spacingAndGlyphs" textLength="5" x="753.25" y="42.1426">*</text>
        <text fill="#000000" font-family="sans-serif" font-size="14" font-weight="bold" lengthAdjust="spacingAndGlyphs" textLength="5" x="758.25" y="42.1426">*</text>
        <rect fill="#AAEECC" filter="url(#f1)" height="30" style="stroke: #A80036; stroke-width: 1.0;" width="10" x="425.5" y="674.75"/>
        <rect fill="#FFFFFF" filter="url(#f1)" height="154.4063" style="stroke: #A80036; stroke-width: 1.0;" width="10" x="540" y="168.8281"/>
        <rect fill="#AAEECC" filter="url(#f1)" height="30" style="stroke: #A80036; stroke-width: 1.0;" width="10" x="540" y="745.1016"/>
        <rect fill="#FFFFFF" filter="url(#f1)" height="124.0547" style="stroke: #A80036; stroke-width: 1.0;" width="10" x="762" y="199.1797"/>
        <rect fill="#AAEECC" filter="url(#f1)" height="135.7031" style="stroke: #A80036; stroke-width: 1.0;" width="10" x="762" y="639.3984"/>
        <rect fill="#FFFFFF" filter="url(#f1)" height="58.7031" style="stroke: #A80036; stroke-width: 1.0;" width="10" x="928" y="229.5313"/>
        <rect fill="#FFFFFF" filter="url(#f1)" height="451.8672" style="stroke: #A80036; stroke-width: 1.0;" width="10" x="928" y="323.2344"/>
        <rect fill="#FFFFFF" filter="url(#f1)" height="14.3516" style="stroke: #A80036; stroke-width: 1.0;" width="10" x="1219" y="259.8828"/>
        <rect fill="#FFFFFF" filter="url(#f1)" height="30.3516" style="stroke: #A80036; stroke-width: 1.0;" width="10" x="1219" y="383.9375"/>
        <rect fill="#FFFFFF" filter="url(#f1)" height="30.3516" style="stroke: #A80036; stroke-width: 1.0;" width="10" x="1219" y="504.9922"/>
        <rect fill="#FFFFFF" filter="url(#f1)" height="30" style="stroke: #A80036; stroke-width: 1.0;" width="10" x="1318.5" y="444.6406"/>
        <rect fill="#FFFFFF" filter="url(#f1)" height="209.4063" style="stroke: #A80036; stroke-width: 1.0;" width="10" x="1318.5" y="565.6953"/>
        <rect fill="#FFFFFF" filter="url(#f1)" height="444.8672" style="stroke: #000000; stroke-width: 2.0;" width="1451.5" x="12" y="343.5859"/>
        <rect fill="#90EE90" height="839.8438" style="stroke: #A80036; stroke-width: 1.0;" width="101" x="380" y="53.2188"/>
        <text fill="#000000" font-family="sans-serif" font-size="13" font-weight="bold" lengthAdjust="spacingAndGlyphs" textLength="92" x="384.5" y="66.7139">STREAM VIEW</text>
        <rect fill="#90EE90" height="839.8438" style="stroke: #A80036; stroke-width: 1.0;" width="124" x="483" y="53.2188"/>
        <text fill="#000000" font-family="sans-serif" font-size="13" font-weight="bold" lengthAdjust="spacingAndGlyphs" textLength="84" x="503" y="66.7139">TANGO VIEW</text>
        <rect fill="#FFA500" height="839.8438" style="stroke: #A80036; stroke-width: 1.0;" width="146" x="694" y="53.2188"/>
        <text fill="#000000" font-family="sans-serif" font-size="13" font-weight="bold" lengthAdjust="spacingAndGlyphs" textLength="88" x="725" y="66.7139">CONTROLLER</text>
        <rect fill="#ADD8E6" height="839.8438" style="stroke: #A80036; stroke-width: 1.0;" width="482.5" x="886" y="53.2188"/>
        <text fill="#000000" font-family="sans-serif" font-size="13" font-weight="bold" lengthAdjust="spacingAndGlyphs" textLength="46" x="1104.25" y="66.7139">MODEL</text>
        <line style="stroke: #A80036; stroke-width: 1.0; stroke-dasharray: 5.0,5.0;" x1="356" x2="356" y1="136.8281" y2="805.4531"/>
        <line style="stroke: #A80036; stroke-width: 1.0; stroke-dasharray: 5.0,5.0;" x1="430" x2="430" y1="136.8281" y2="805.4531"/>
        <line style="stroke: #A80036; stroke-width: 1.0; stroke-dasharray: 5.0,5.0;" x1="545" x2="545" y1="136.8281" y2="805.4531"/>
        <line style="stroke: #A80036; stroke-width: 1.0; stroke-dasharray: 5.0,5.0;" x1="767" x2="767" y1="136.8281" y2="805.4531"/>
        <line style="stroke: #A80036; stroke-width: 1.0; stroke-dasharray: 5.0,5.0;" x1="933" x2="933" y1="136.8281" y2="805.4531"/>
        <line style="stroke: #A80036; stroke-width: 1.0; stroke-dasharray: 5.0,5.0;" x1="1223.5" x2="1223.5" y1="136.8281" y2="805.4531"/>
        <line style="stroke: #A80036; stroke-width: 1.0; stroke-dasharray: 5.0,5.0;" x1="1323.5" x2="1323.5" y1="136.8281" y2="805.4531"/>
        <text fill="#000000" font-family="sans-serif" font-size="14" lengthAdjust="spacingAndGlyphs" textLength="29" x="339" y="133.752">User</text>
        <ellipse cx="356.5" cy="62.2188" fill="#FEFECE" filter="url(#f1)" rx="8" ry="8" style="stroke: #A80036; stroke-width: 2.0;"/>
        <path d="M356.5,70.2188 L356.5,97.2188 M343.5,78.2188 L369.5,78.2188 M356.5,97.2188 L343.5,112.2188 M356.5,97.2188 L369.5,112.2188 " fill="#FEFECE" filter="url(#f1)" style="stroke: #A80036; stroke-width: 2.0;"/>
        <text fill="#000000" font-family="sans-serif" font-size="14" lengthAdjust="spacingAndGlyphs" textLength="29" x="339" y="818.9863">User</text>
        <ellipse cx="356.5" cy="832.0625" fill="#FEFECE" filter="url(#f1)" rx="8" ry="8" style="stroke: #A80036; stroke-width: 2.0;"/>
        <path d="M356.5,840.0625 L356.5,867.0625 M343.5,848.0625 L369.5,848.0625 M356.5,867.0625 L343.5,882.0625 M356.5,867.0625 L369.5,882.0625 " fill="#FEFECE" filter="url(#f1)" style="stroke: #A80036; stroke-width: 2.0;"/>
        <rect fill="#FEFECE" filter="url(#f1)" height="31.6094" style="stroke: #A80036; stroke-width: 1.5;" width="89" x="384" y="100.2188"/>
        <text fill="#000000" font-family="sans-serif" font-size="14" lengthAdjust="spacingAndGlyphs" textLength="75" x="391" y="121.752">DataStream</text>
        <rect fill="#FEFECE" filter="url(#f1)" height="31.6094" style="stroke: #A80036; stroke-width: 1.5;" width="89" x="384" y="804.4531"/>
        <text fill="#000000" font-family="sans-serif" font-size="14" lengthAdjust="spacingAndGlyphs" textLength="75" x="391" y="825.9863">DataStream</text>
        <rect fill="#FEFECE" filter="url(#f1)" height="31.6094" style="stroke: #A80036; stroke-width: 1.5;" width="112" x="487" y="100.2188"/>
        <text fill="#000000" font-family="sans-serif" font-size="14" lengthAdjust="spacingAndGlyphs" textLength="98" x="494" y="121.752">Device/AttrView</text>
        <rect fill="#FEFECE" filter="url(#f1)" height="31.6094" style="stroke: #A80036; stroke-width: 1.5;" width="112" x="487" y="804.4531"/>
        <text fill="#000000" font-family="sans-serif" font-size="14" lengthAdjust="spacingAndGlyphs" textLength="98" x="494" y="825.9863">Device/AttrView</text>
        <rect fill="#FEFECE" filter="url(#f1)" height="31.6094" style="stroke: #A80036; stroke-width: 1.5;" width="76" x="727" y="100.2188"/>
        <text fill="#000000" font-family="sans-serif" font-size="14" lengthAdjust="spacingAndGlyphs" textLength="62" x="734" y="121.752">Controller</text>
        <rect fill="#FEFECE" filter="url(#f1)" height="31.6094" style="stroke: #A80036; stroke-width: 1.5;" width="76" x="727" y="804.4531"/>
        <text fill="#000000" font-family="sans-serif" font-size="14" lengthAdjust="spacingAndGlyphs" textLength="62" x="734" y="825.9863">Controller</text>
        <rect fill="#FEFECE" filter="url(#f1)" height="31.6094" style="stroke: #A80036; stroke-width: 1.5;" width="82" x="890" y="100.2188"/>
        <text fill="#000000" font-family="sans-serif" font-size="14" lengthAdjust="spacingAndGlyphs" textLength="68" x="897" y="121.752">Acquisition</text>
        <rect fill="#FEFECE" filter="url(#f1)" height="31.6094" style="stroke: #A80036; stroke-width: 1.5;" width="82" x="890" y="804.4531"/>
        <text fill="#000000" font-family="sans-serif" font-size="14" lengthAdjust="spacingAndGlyphs" textLength="68" x="897" y="825.9863">Acquisition</text>
        <rect fill="#FEFECE" filter="url(#f1)" height="31.6094" style="stroke: #A80036; stroke-width: 1.5;" width="93" x="1175.5" y="100.2188"/>
        <text fill="#000000" font-family="sans-serif" font-size="14" lengthAdjust="spacingAndGlyphs" textLength="79" x="1182.5" y="121.752">DriverHelper</text>
        <rect fill="#FEFECE" filter="url(#f1)" height="31.6094" style="stroke: #A80036; stroke-width: 1.5;" width="93" x="1175.5" y="804.4531"/>
        <text fill="#000000" font-family="sans-serif" font-size="14" lengthAdjust="spacingAndGlyphs" textLength="79" x="1182.5" y="825.9863">DriverHelper</text>
        <rect fill="#FEFECE" filter="url(#f1)" height="31.6094" style="stroke: #A80036; stroke-width: 1.5;" width="78" x="1282.5" y="100.2188"/>
        <text fill="#000000" font-family="sans-serif" font-size="14" lengthAdjust="spacingAndGlyphs" textLength="64" x="1289.5" y="121.752">DataStore</text>
        <rect fill="#FEFECE" filter="url(#f1)" height="31.6094" style="stroke: #A80036; stroke-width: 1.5;" width="78" x="1282.5" y="804.4531"/>
        <text fill="#000000" font-family="sans-serif" font-size="14" lengthAdjust="spacingAndGlyphs" textLength="64" x="1289.5" y="825.9863">DataStore</text>
        <rect fill="#AAEECC" filter="url(#f1)" height="30" style="stroke: #A80036; stroke-width: 1.0;" width="10" x="425.5" y="674.75"/>
        <rect fill="#FFFFFF" filter="url(#f1)" height="154.4063" style="stroke: #A80036; stroke-width: 1.0;" width="10" x="540" y="168.8281"/>
        <rect fill="#AAEECC" filter="url(#f1)" height="30" style="stroke: #A80036; stroke-width: 1.0;" width="10" x="540" y="745.1016"/>
        <rect fill="#FFFFFF" filter="url(#f1)" height="124.0547" style="stroke: #A80036; stroke-width: 1.0;" width="10" x="762" y="199.1797"/>
        <rect fill="#AAEECC" filter="url(#f1)" height="135.7031" style="stroke: #A80036; stroke-width: 1.0;" width="10" x="762" y="639.3984"/>
        <rect fill="#FFFFFF" filter="url(#f1)" height="58.7031" style="stroke: #A80036; stroke-width: 1.0;" width="10" x="928" y="229.5313"/>
        <rect fill="#FFFFFF" filter="url(#f1)" height="451.8672" style="stroke: #A80036; stroke-width: 1.0;" width="10" x="928" y="323.2344"/>
        <rect fill="#FFFFFF" filter="url(#f1)" height="14.3516" style="stroke: #A80036; stroke-width: 1.0;" width="10" x="1219" y="259.8828"/>
        <rect fill="#FFFFFF" filter="url(#f1)" height="30.3516" style="stroke: #A80036; stroke-width: 1.0;" width="10" x="1219" y="383.9375"/>
        <rect fill="#FFFFFF" filter="url(#f1)" height="30.3516" style="stroke: #A80036; stroke-width: 1.0;" width="10" x="1219" y="504.9922"/>
        <rect fill="#FFFFFF" filter="url(#f1)" height="30" style="stroke: #A80036; stroke-width: 1.0;" width="10" x="1318.5" y="444.6406"/>
        <rect fill="#FFFFFF" filter="url(#f1)" height="209.4063" style="stroke: #A80036; stroke-width: 1.0;" width="10" x="1318.5" y="565.6953"/>
        <polygon fill="#A80036" points="528,164.8281,538,168.8281,528,172.8281,532,168.8281" style="stroke: #A80036; stroke-width: 1.0;"/>
        <line style="stroke: #A80036; stroke-width: 1.0;" x1="356.5" x2="534" y1="168.8281" y2="168.8281"/>
        <text fill="#000000" font-family="sans-serif" font-size="13" lengthAdjust="spacingAndGlyphs" textLength="36" x="363.5" y="164.3232">Start()</text>
        <polygon fill="#A80036" points="750,195.1797,760,199.1797,750,203.1797,754,199.1797" style="stroke: #A80036; stroke-width: 1.0;"/>
        <line style="stroke: #A80036; stroke-width: 1.0;" x1="550" x2="756" y1="199.1797" y2="199.1797"/>
        <text fill="#000000" font-family="sans-serif" font-size="13" lengthAdjust="spacingAndGlyphs" textLength="34" x="557" y="194.6748">start()</text>
        <polygon fill="#A80036" points="916,225.5313,926,229.5313,916,233.5313,920,229.5313" style="stroke: #A80036; stroke-width: 1.0;"/>
        <line style="stroke: #A80036; stroke-width: 1.0;" x1="772" x2="922" y1="229.5313" y2="229.5313"/>
        <text fill="#000000" font-family="sans-serif" font-size="13" lengthAdjust="spacingAndGlyphs" textLength="103" x="779" y="225.0264">start_acquisition()</text>
        <polygon fill="#A80036" points="1207,255.8828,1217,259.8828,1207,263.8828,1211,259.8828" style="stroke: #A80036; stroke-width: 1.0;"/>
        <line style="stroke: #A80036; stroke-width: 1.0;" x1="938" x2="1213" y1="259.8828" y2="259.8828"/>
        <text fill="#000000" font-family="sans-serif" font-size="13" lengthAdjust="spacingAndGlyphs" textLength="103" x="945" y="255.3779">start_acquisition()</text>
        <polygon fill="#A80036" points="949,270.2344,939,274.2344,949,278.2344,945,274.2344" style="stroke: #A80036; stroke-width: 1.0;"/>
        <line style="stroke: #A80036; stroke-width: 1.0; stroke-dasharray: 2.0,2.0;" x1="943" x2="1223" y1="274.2344" y2="274.2344"/>
        <polygon fill="#A80036" points="783,284.2344,773,288.2344,783,292.2344,779,288.2344" style="stroke: #A80036; stroke-width: 1.0;"/>
        <line style="stroke: #A80036; stroke-width: 1.0; stroke-dasharray: 2.0,2.0;" x1="777" x2="932" y1="288.2344" y2="288.2344"/>
        <polygon fill="#A80036" points="556,319.2344,546,323.2344,556,327.2344,552,323.2344" style="stroke: #A80036; stroke-width: 1.0;"/>
        <line style="stroke: #A80036; stroke-width: 1.0; stroke-dasharray: 2.0,2.0;" x1="550" x2="766" y1="323.2344" y2="323.2344"/>
        <text fill="#000000" font-family="sans-serif" font-size="13" lengthAdjust="spacingAndGlyphs" textLength="159" x="562" y="318.7295">state (RUNNING/FAULT/...)</text>
        <polygon fill="#FBFB77" filter="url(#f1)" points="777,301.2344,777,327.2344,1106,327.2344,1106,311.2344,1096,301.2344,777,301.2344" style="stroke: #A80036; stroke-width: 1.0;"/>
        <line style="stroke: #A80036; stroke-width: 1.0;" x1="1096" x2="1096" y1="301.2344" y2="311.2344"/>
        <line style="stroke: #A80036; stroke-width: 1.0;" x1="1106" x2="1096" y1="311.2344" y2="311.2344"/>
        <text fill="#000000" font-family="sans-serif" font-size="13" lengthAdjust="spacingAndGlyphs" textLength="308" x="783" y="319.7295">State = RUNNING will activate the Task Periodic loop</text>
        <rect fill="none" height="444.8672" style="stroke: #000000; stroke-width: 2.0;" width="1451.5" x="12" y="343.5859"/>
        <polygon fill="#EEEEEE" points="12,343.5859,85,343.5859,85,351.5859,75,361.5859,12,361.5859,12,343.5859" style="stroke: #000000; stroke-width: 2.0;"/>
        <text fill="#000000" font-family="sans-serif" font-size="13" font-weight="bold" lengthAdjust="spacingAndGlyphs" textLength="28" x="27" y="358.0811">loop</text>
        <text fill="#000000" font-family="sans-serif" font-size="11" font-weight="bold" lengthAdjust="spacingAndGlyphs" textLength="427" x="100" y="357.0049">[while  RUNNING &amp; every 100 ms (PERIODIC Task message) &amp; for each channel]</text>
        <polygon fill="#A80036" points="1207,379.9375,1217,383.9375,1207,387.9375,1211,383.9375" style="stroke: #A80036; stroke-width: 1.0;"/>
        <line style="stroke: #A80036; stroke-width: 1.0;" x1="938" x2="1213" y1="383.9375" y2="383.9375"/>
        <text fill="#000000" font-family="sans-serif" font-size="13" lengthAdjust="spacingAndGlyphs" textLength="257" x="945" y="379.4326">get_run_data(num_channel, statistics name)</text>
        <polygon fill="#A80036" points="949,410.2891,939,414.2891,949,418.2891,945,414.2891" style="stroke: #A80036; stroke-width: 1.0;"/>
        <line style="stroke: #A80036; stroke-width: 1.0; stroke-dasharray: 2.0,2.0;" x1="943" x2="1223" y1="414.2891" y2="414.2891"/>
        <text fill="#000000" font-family="sans-serif" font-size="13" lengthAdjust="spacingAndGlyphs" textLength="149" x="955" y="409.7842">realtime/livetime/icr/ocr/...</text>
        <polygon fill="#A80036" points="1306.5,440.6406,1316.5,444.6406,1306.5,448.6406,1310.5,444.6406" style="stroke: #A80036; stroke-width: 1.0;"/>
        <line style="stroke: #A80036; stroke-width: 1.0;" x1="938" x2="1312.5" y1="444.6406" y2="444.6406"/>
        <text fill="#000000" font-family="sans-serif" font-size="13" lengthAdjust="spacingAndGlyphs" textLength="174" x="945" y="440.1357">store_statistics(num_channel)</text>
        <polygon fill="#A80036" points="1207,500.9922,1217,504.9922,1207,508.9922,1211,504.9922" style="stroke: #A80036; stroke-width: 1.0;"/>
        <line style="stroke: #A80036; stroke-width: 1.0;" x1="938" x2="1213" y1="504.9922" y2="504.9922"/>
        <text fill="#000000" font-family="sans-serif" font-size="13" lengthAdjust="spacingAndGlyphs" textLength="167" x="945" y="500.4873">get_mca_data(num_channel)</text>
        <polygon fill="#A80036" points="949,531.3438,939,535.3438,949,539.3438,945,535.3438" style="stroke: #A80036; stroke-width: 1.0;"/>
        <line style="stroke: #A80036; stroke-width: 1.0; stroke-dasharray: 2.0,2.0;" x1="943" x2="1223" y1="535.3438" y2="535.3438"/>
        <text fill="#000000" font-family="sans-serif" font-size="13" lengthAdjust="spacingAndGlyphs" textLength="121" x="955" y="530.8389">array of channel data</text>
        <polygon fill="#A80036" points="1306.5,561.6953,1316.5,565.6953,1306.5,569.6953,1310.5,565.6953" style="stroke: #A80036; stroke-width: 1.0;"/>
        <line style="stroke: #A80036; stroke-width: 1.0;" x1="938" x2="1312.5" y1="565.6953" y2="565.6953"/>
        <text fill="#000000" font-family="sans-serif" font-size="13" lengthAdjust="spacingAndGlyphs" textLength="146" x="945" y="561.1904">store_data(num_channel)</text>
        <line style="stroke: #A80036; stroke-width: 1.0;" x1="1328.5" x2="1370.5" y1="596.3984" y2="596.3984"/>
        <line style="stroke: #A80036; stroke-width: 1.0;" x1="1370.5" x2="1370.5" y1="596.3984" y2="609.3984"/>
        <line style="stroke: #A80036; stroke-width: 1.0;" x1="1329.5" x2="1370.5" y1="609.3984" y2="609.3984"/>
        <polygon fill="#A80036" points="1339.5,605.3984,1329.5,609.3984,1339.5,613.3984,1335.5,609.3984" style="stroke: #A80036; stroke-width: 1.0;"/>
        <text fill="#000000" font-family="sans-serif" font-size="13" lengthAdjust="spacingAndGlyphs" textLength="116" x="1335.5" y="591.542">notify(num_channel)</text>
        <polygon fill="#A80036" points="783,635.3984,773,639.3984,783,643.3984,779,639.3984" style="stroke: #A80036; stroke-width: 1.0;"/>
        <line style="stroke: #A80036; stroke-width: 1.0;" x1="777" x2="1317.5" y1="639.3984" y2="639.3984"/>
        <text fill="#000000" font-family="sans-serif" font-size="13" lengthAdjust="spacingAndGlyphs" textLength="156" x="789" y="634.8936">update_data(num_channel)</text>
        <polygon fill="#A80036" points="446.5,670.75,436.5,674.75,446.5,678.75,442.5,674.75" style="stroke: #A80036; stroke-width: 1.0;"/>
        <line style="stroke: #A80036; stroke-width: 1.0;" x1="440.5" x2="761" y1="674.75" y2="674.75"/>
        <text fill="#000000" font-family="sans-serif" font-size="13" lengthAdjust="spacingAndGlyphs" textLength="156" x="452.5" y="670.2451">update_data(num_channel)</text>
        <polygon fill="#FBFB77" filter="url(#f1)" points="22,652.75,22,678.75,416,678.75,416,662.75,406,652.75,22,652.75" style="stroke: #A80036; stroke-width: 1.0;"/>
        <line style="stroke: #A80036; stroke-width: 1.0;" x1="406" x2="406" y1="652.75" y2="662.75"/>
        <line style="stroke: #A80036; stroke-width: 1.0;" x1="416" x2="406" y1="662.75" y2="662.75"/>
        <text fill="#000000" font-family="sans-serif" font-size="13" lengthAdjust="spacingAndGlyphs" textLength="373" x="28" y="671.2451">Push data into Stream (there is No Nexus stream in MCA mode)</text>
        <polygon fill="#A80036" points="561,741.1016,551,745.1016,561,749.1016,557,745.1016" style="stroke: #A80036; stroke-width: 1.0;"/>
        <line style="stroke: #A80036; stroke-width: 1.0;" x1="555" x2="761" y1="745.1016" y2="745.1016"/>
        <text fill="#000000" font-family="sans-serif" font-size="13" lengthAdjust="spacingAndGlyphs" textLength="156" x="567" y="740.5967">update_data(num_channel)</text>
        <polygon fill="#FBFB77" filter="url(#f1)" points="230,723.1016,230,749.1016,531,749.1016,531,733.1016,521,723.1016,230,723.1016" style="stroke: #A80036; stroke-width: 1.0;"/>
        <line style="stroke: #A80036; stroke-width: 1.0;" x1="521" x2="521" y1="723.1016" y2="733.1016"/>
        <line style="stroke: #A80036; stroke-width: 1.0;" x1="531" x2="521" y1="733.1016" y2="733.1016"/>
        <text fill="#000000" font-family="sans-serif" font-size="13" lengthAdjust="spacingAndGlyphs" textLength="280" x="236" y="741.5967">Update Tango stats/channels dynamic attributes</text>
    </g>
</svg>
